<?xml version="1.0" encoding="UTF-8" standalone="no"?>
<!DOCTYPE svg PUBLIC "-//W3C//DTD SVG 1.1//EN" "http://www.w3.org/Graphics/SVG/1.1/DTD/svg11.dtd">
<svg width="100%" height="100%" viewBox="0 0 404 404" version="1.1" xmlns="http://www.w3.org/2000/svg" xmlns:xlink="http://www.w3.org/1999/xlink" xml:space="preserve" xmlns:serif="http://www.serif.com/" style="fill-rule:evenodd;clip-rule:evenodd;stroke-linejoin:round;stroke-miterlimit:1.41421;">
    <g transform="matrix(1,0,0,1,81.279,0)">
        <g transform="matrix(0.999934,0,0,0.999727,-93.1886,-208.737)">
            <path d="M318.203,329.008C311.483,332.304 287.498,335.632 274.538,329.008C260.897,322.036 249.663,294.203 236.359,287.178C224.084,280.697 205.538,278.994 194.716,286.862C183.894,294.73 171.909,314.322 171.428,334.386C171.006,351.975 191.858,384.628 213.924,390.665C222.472,393.004 232.991,395.76 240.291,394.093C247.442,392.46 254.178,379.291 257.723,380.664C261.268,382.037 258.762,397.385 261.558,402.332C264.055,406.75 269.433,410.08 274.5,410.346C280.175,410.644 292.798,401.56 295.607,404.121C298.416,406.681 290.535,420.088 291.355,425.711C292.088,430.732 295.9,435.78 300.529,437.859C305.713,440.187 320.765,436.276 322.459,439.678C324.153,443.081 311.962,452.736 310.695,458.275C309.564,463.222 311.296,469.306 314.861,472.917C318.854,476.96 334.302,478.75 334.653,482.535C335.003,486.32 320.147,490.919 316.965,495.627C314.124,499.831 313.54,506.13 315.561,510.784C317.824,515.997 331.582,523.247 330.541,526.903C329.501,530.559 313.987,529.481 309.319,532.721C305.151,535.615 302.332,541.278 302.534,546.348C302.761,552.026 312.971,563.756 310.68,566.79C308.39,569.823 294.313,563.213 288.789,564.549C283.858,565.741 279.183,570.003 277.54,574.804C275.7,580.18 280.984,594.807 277.752,596.808C274.52,598.809 263.782,587.56 258.149,586.811C253.119,586.141 247.22,588.426 243.954,592.31C240.297,596.658 239.939,612.206 236.203,612.904C232.466,613.603 226.517,599.234 221.535,596.5C217.087,594.059 210.761,594.059 206.313,596.5C201.331,599.234 195.381,613.603 191.645,612.904C187.908,612.206 187.551,596.658 183.893,592.31C180.627,588.426 174.729,586.141 169.699,586.811C164.066,587.56 153.328,598.809 150.096,596.808C146.864,594.807 152.147,580.18 150.308,574.804C148.665,570.003 143.99,565.741 139.058,564.549C133.535,563.213 119.458,569.823 117.167,566.79C114.876,563.756 125.087,552.026 125.313,546.348C125.516,541.278 122.696,535.615 118.528,532.721C113.86,529.481 98.346,530.559 97.306,526.903C96.266,523.247 108.861,516.217 112.287,510.784C115.379,505.88 112.554,496.647 117.859,494.307C124.696,491.291 142.254,485.602 153.31,492.69C165.367,500.421 168.353,531.907 183.266,539.075C198.179,546.243 231.416,547.541 242.787,535.697C254.158,523.852 256.302,485.11 251.491,468.01C246.862,451.554 221.454,438.965 213.924,433.099C211.921,431.539 208.369,431.33 206.313,432.818C202.599,435.505 195.381,449.92 191.645,449.222C187.908,448.523 187.551,432.976 183.893,428.627C180.627,424.744 174.729,422.459 169.699,423.128C164.066,423.878 153.328,435.127 150.096,433.126C146.864,431.125 152.147,416.498 150.308,411.122C148.665,406.321 143.99,402.059 139.058,400.866C133.535,399.531 119.458,406.141 117.167,403.107C114.876,400.074 125.087,388.344 125.313,382.665C125.516,377.595 122.696,371.933 118.528,369.039C113.86,365.798 98.346,366.877 97.306,363.221C96.266,359.565 110.024,352.315 112.287,347.102C114.307,342.448 113.723,336.149 110.882,331.945C107.7,327.236 92.844,322.638 93.195,318.853C93.546,315.068 108.994,313.278 112.987,309.234C116.552,305.624 118.283,299.54 117.152,294.593C115.886,289.053 103.694,279.399 105.389,275.996C107.083,272.593 122.135,276.504 127.319,274.177C131.947,272.098 135.76,267.05 136.492,262.029C137.312,256.406 129.432,242.999 132.241,240.438C135.05,237.877 147.672,246.962 153.347,246.664C158.414,246.397 163.793,243.067 166.289,238.65C169.086,233.703 166.58,218.355 170.125,216.981C173.669,215.608 182.158,228.639 187.557,230.411C192.378,231.993 198.596,230.831 202.52,227.614C206.914,224.011 210.123,208.794 213.924,208.794C217.725,208.794 220.933,224.011 225.328,227.614C229.251,230.831 235.47,231.993 240.291,230.411C245.69,228.639 254.178,215.608 257.723,216.981C261.268,218.355 258.762,233.703 261.558,238.65C264.055,243.067 269.433,246.397 274.5,246.664C280.175,246.962 292.798,237.877 295.607,240.438C298.416,242.999 290.535,256.406 291.355,262.029C292.088,267.05 295.9,272.098 300.529,274.177C305.713,276.504 320.765,272.593 322.459,275.996C324.153,279.399 311.962,289.053 310.695,294.593C309.564,299.54 313.78,304.277 314.861,309.234C316.112,314.97 324.205,326.065 318.203,329.008Z"/>
        </g>
        <g transform="matrix(0.0722299,-0.4061,0.4061,0.0722299,63.797,339.857)">
            <path d="M146.881,61.508C179.136,61.508 180.941,82.005 180.941,114.26C180.941,146.515 154.754,172.702 122.499,172.702C90.245,172.702 78.443,147.468 78.443,115.214C78.443,82.959 114.626,61.508 146.881,61.508Z"/>
        </g>
    </g>
</svg>
